<svg width="24" height="35" viewBox="0 0 24 35" fill="none" xmlns="http://www.w3.org/2000/svg">
<path d="M23.433 8.71116C23.309 8.24424 23.0572 7.74672 22.8709 7.31112C20.6417 1.92889 15.7708 0 11.8379 0C6.57292 0 0.77418 3.54677 0 10.8575V12.3511C0 12.4134 0.0213835 12.9734 0.0517578 13.2535C0.485746 16.7376 3.22227 20.4404 5.26602 23.9245C7.46479 27.6574 9.74635 31.3295 12.0068 35C13.4006 32.6047 14.7894 30.1779 16.1514 27.8445C16.5227 27.1598 16.9536 26.4754 17.3252 25.8218C17.5729 25.3866 18.0461 24.9515 18.2623 24.5465C20.4609 20.5023 24 16.4269 24 12.4134V10.7646C24.0001 10.3294 23.4632 8.80499 23.433 8.71116ZM11.9343 16.2091C10.3866 16.2091 8.69264 15.4317 7.8565 13.2846C7.73192 12.9429 7.74197 12.2579 7.74197 12.1952V11.2307C7.74197 8.49365 10.0553 7.24896 12.0678 7.24896C14.5453 7.24896 16.4615 9.24034 16.4615 11.7294C16.4615 14.2184 14.4118 16.2091 11.9343 16.2091Z" fill="white"/>
</svg>
