<svg width="60" height="72" viewBox="0 0 60 72" fill="none" xmlns="http://www.w3.org/2000/svg">
<path d="M29 42.5L50 0H51L58 52H53.5L48 15L30 52H29V42.5Z" fill="white"/>
<path d="M29 42.5L8 0H7L0 52H4.5L10 15L28 52H29V42.5Z" fill="white"/>
<path d="M0 60H1L6 72H5L1 62.5V72H0V60Z" fill="white"/>
<path d="M11 60H10L5 72H6L10 62.5V72H11V60Z" fill="white"/>
<path d="M17.5 60H18V61.5652L15.5 68.3478H18V69.3913H15L14 72H13L17.5 60Z" fill="white"/>
<path d="M18.5 60H18V61.5652L20.5 68.3478H18V69.3913H21L22 72H23L18.5 60Z" fill="white"/>
<path d="M25 60H26V71H31V60H32V71H37V60H38V72H25V60Z" fill="white"/>
<path d="M42 71H44V72H42V71Z" fill="white"/>
<path d="M43.134 71.5L48.2399 60L49.5 60L44 72L43.134 71.5Z" fill="white"/>
<path d="M45.5 68L41.7601 60L40.5 60L44.634 68.5L45.5 68Z" fill="white"/>
<path d="M51 60H52V72H51V60Z" fill="white"/>
<path d="M51 66V65H55V66H51Z" fill="white"/>
<path d="M55 65.5L54 65L58.5 60H60L55 65.5Z" fill="white"/>
<path d="M55 65.5L54 66L58.5 72H60L55 65.5Z" fill="white"/>
</svg>
