<svg width="103" height="103" viewBox="0 0 103 103" fill="none" xmlns="http://www.w3.org/2000/svg">
<path d="M15 44.5L15 1L29.6 1L29.6 44.5H15Z" fill="white"/>
<path d="M15 88V44.5H29.6V88H15Z" fill="white"/>
<path d="M29.6 73.5H73.4V88H29.6L29.6 73.5Z" fill="white"/>
<path d="M73.4 88V44.5H88V88H73.4Z" fill="white"/>
<path d="M73.4 44.5V1L88 1V44.5H73.4Z" fill="white"/>
<path d="M15 44.5L15 1L29.6 1L29.6 44.5M15 44.5H29.6M15 44.5V88H29.6M29.6 44.5V88M29.6 88H73.4M29.6 88L29.6 73.5H73.4V88M73.4 88V44.5M73.4 88H88V44.5M73.4 44.5H88M73.4 44.5V1L88 1V44.5" stroke="#C4C4C4"/>
<path d="M9 7.62857C9 10.1849 6.98528 12.2571 4.5 12.2571C2.01472 12.2571 0 10.1849 0 7.62857C0 5.07228 2.01472 3 4.5 3C6.98528 3 9 5.07228 9 7.62857Z" fill="#2F587F"/>
<path d="M9 21C9 23.5563 6.98528 25.6286 4.5 25.6286C2.01472 25.6286 0 23.5563 0 21C0 18.4437 2.01472 16.3714 4.5 16.3714C6.98528 16.3714 9 18.4437 9 21Z" fill="#2F587F"/>
<path d="M9 34.3714C9 36.9277 6.98528 39 4.5 39C2.01472 39 0 36.9277 0 34.3714C0 31.8151 2.01472 29.7429 4.5 29.7429C6.98528 29.7429 9 31.8151 9 34.3714Z" fill="#2F587F"/>
<path d="M9 53.7571C9 56.3844 6.98528 58.5143 4.5 58.5143C2.01472 58.5143 0 56.3844 0 53.7571C0 51.1298 2.01472 49 4.5 49C6.98528 49 9 51.1298 9 53.7571Z" fill="#2F587F"/>
<path d="M9 67.5C9 70.1273 6.98528 72.2571 4.5 72.2571C2.01472 72.2571 0 70.1273 0 67.5C0 64.8727 2.01472 62.7429 4.5 62.7429C6.98528 62.7429 9 64.8727 9 67.5Z" fill="#2F587F"/>
<path d="M9 81.2429C9 83.8702 6.98528 86 4.5 86C2.01472 86 0 83.8702 0 81.2429C0 78.6156 2.01472 76.4857 4.5 76.4857C6.98528 76.4857 9 78.6156 9 81.2429Z" fill="#2F587F"/>
<path d="M103 53.7571C103 56.3844 100.985 58.5143 98.5 58.5143C96.0147 58.5143 94 56.3844 94 53.7571C94 51.1298 96.0147 49 98.5 49C100.985 49 103 51.1298 103 53.7571Z" fill="#2F587F"/>
<path d="M103 67.5C103 70.1273 100.985 72.2571 98.5 72.2571C96.0147 72.2571 94 70.1273 94 67.5C94 64.8727 96.0147 62.7429 98.5 62.7429C100.985 62.7429 103 64.8727 103 67.5Z" fill="#2F587F"/>
<path d="M103 81.2429C103 83.8702 100.985 86 98.5 86C96.0147 86 94 83.8702 94 81.2429C94 78.6156 96.0147 76.4857 98.5 76.4857C100.985 76.4857 103 78.6156 103 81.2429Z" fill="#2F587F"/>
<path d="M103 7.62857C103 10.1849 100.985 12.2571 98.5 12.2571C96.0147 12.2571 94 10.1849 94 7.62857C94 5.07228 96.0147 3 98.5 3C100.985 3 103 5.07228 103 7.62857Z" fill="#2F587F"/>
<path d="M103 21C103 23.5563 100.985 25.6286 98.5 25.6286C96.0147 25.6286 94 23.5563 94 21C94 18.4437 96.0147 16.3714 98.5 16.3714C100.985 16.3714 103 18.4437 103 21Z" fill="#2F587F"/>
<path d="M103 34.3714C103 36.9277 100.985 39 98.5 39C96.0147 39 94 36.9277 94 34.3714C94 31.8151 96.0147 29.7429 98.5 29.7429C100.985 29.7429 103 31.8151 103 34.3714Z" fill="#2F587F"/>
<path d="M32.5938 94C35.1308 94 37.1875 96.0147 37.1875 98.5C37.1875 100.985 35.1308 103 32.5938 103C30.0567 103 28 100.985 28 98.5C28 96.0147 30.0567 94 32.5938 94Z" fill="#2F587F"/>
<path d="M45.8646 94C48.4016 94 50.4583 96.0147 50.4583 98.5C50.4583 100.985 48.4016 103 45.8646 103C43.3275 103 41.2708 100.985 41.2708 98.5C41.2708 96.0147 43.3275 94 45.8646 94Z" fill="#2F587F"/>
<path d="M59.1354 94C61.6725 94 63.7292 96.0147 63.7292 98.5C63.7292 100.985 61.6725 103 59.1354 103C56.5984 103 54.5417 100.985 54.5417 98.5C54.5417 96.0147 56.5984 94 59.1354 94Z" fill="#2F587F"/>
<path d="M77 98.5C77 100.985 74.9433 103 72.4062 103C69.8692 103 67.8125 100.985 67.8125 98.5C67.8125 96.0147 69.8692 94 72.4062 94C74.9433 94 77 96.0147 77 98.5Z" fill="#2F587F"/>
</svg>
