<svg width="81" height="103" viewBox="0 0 81 103" fill="none" xmlns="http://www.w3.org/2000/svg">
<path d="M21.4138 47.9486C21.4138 50.2481 19.538 52.1122 17.2241 52.1122C14.9103 52.1122 13.0345 50.2481 13.0345 47.9486C13.0345 45.6491 14.9103 43.785 17.2241 43.785C19.538 43.785 21.4138 45.6491 21.4138 47.9486Z" fill="#2F587F"/>
<path d="M21.4138 59.9766C21.4138 62.2761 19.538 64.1402 17.2241 64.1402C14.9103 64.1402 13.0345 62.2761 13.0345 59.9766C13.0345 57.6772 14.9103 55.8131 17.2241 55.8131C19.538 55.8131 21.4138 57.6772 21.4138 59.9766Z" fill="#2F587F"/>
<path d="M21.4138 72.0047C21.4138 74.3041 19.538 76.1682 17.2241 76.1682C14.9103 76.1682 13.0345 74.3041 13.0345 72.0047C13.0345 69.7052 14.9103 67.8411 17.2241 67.8411C19.538 67.8411 21.4138 69.7052 21.4138 72.0047Z" fill="#2F587F"/>
<path d="M21.4138 8.16355C21.4138 10.463 19.538 12.3271 17.2241 12.3271C14.9103 12.3271 13.0345 10.463 13.0345 8.16355C13.0345 5.86409 14.9103 4 17.2241 4C19.538 4 21.4138 5.86409 21.4138 8.16355Z" fill="#2F587F"/>
<path d="M21.4138 20.1916C21.4138 22.4911 19.538 24.3551 17.2241 24.3551C14.9103 24.3551 13.0345 22.4911 13.0345 20.1916C13.0345 17.8921 14.9103 16.028 17.2241 16.028C19.538 16.028 21.4138 17.8921 21.4138 20.1916Z" fill="#2F587F"/>
<path d="M21.4138 32.2196C21.4138 34.5191 19.538 36.3832 17.2241 36.3832C14.9103 36.3832 13.0345 34.5191 13.0345 32.2196C13.0345 29.9202 14.9103 28.0561 17.2241 28.0561C19.538 28.0561 21.4138 29.9202 21.4138 32.2196Z" fill="#2F587F"/>
<path d="M67.0345 8.16355C67.0345 10.463 65.1587 12.3271 62.8448 12.3271C60.5309 12.3271 58.6552 10.463 58.6552 8.16355C58.6552 5.86409 60.5309 4 62.8448 4C65.1587 4 67.0345 5.86409 67.0345 8.16355Z" fill="#2F587F"/>
<path d="M67.0345 20.1916C67.0345 22.4911 65.1587 24.3551 62.8448 24.3551C60.5309 24.3551 58.6552 22.4911 58.6552 20.1916C58.6552 17.8921 60.5309 16.028 62.8448 16.028C65.1587 16.028 67.0345 17.8921 67.0345 20.1916Z" fill="#2F587F"/>
<path d="M67.0345 32.2196C67.0345 34.5191 65.1587 36.3832 62.8448 36.3832C60.5309 36.3832 58.6552 34.5191 58.6552 32.2196C58.6552 29.9202 60.5309 28.0561 62.8448 28.0561C65.1587 28.0561 67.0345 29.9202 67.0345 32.2196Z" fill="#2F587F"/>
<path d="M67.0345 47.9486C67.0345 50.2481 65.1587 52.1122 62.8448 52.1122C60.5309 52.1122 58.6552 50.2481 58.6552 47.9486C58.6552 45.6491 60.5309 43.785 62.8448 43.785C65.1587 43.785 67.0345 45.6491 67.0345 47.9486Z" fill="#2F587F"/>
<path d="M67.0345 59.9766C67.0345 62.2761 65.1587 64.1402 62.8448 64.1402C60.5309 64.1402 58.6552 62.2761 58.6552 59.9766C58.6552 57.6772 60.5309 55.8131 62.8448 55.8131C65.1587 55.8131 67.0345 57.6772 67.0345 59.9766Z" fill="#2F587F"/>
<path d="M67.0345 72.0047C67.0345 74.3041 65.1587 76.1682 62.8448 76.1682C60.5309 76.1682 58.6552 74.3041 58.6552 72.0047C58.6552 69.7052 60.5309 67.8411 62.8448 67.8411C65.1587 67.8411 67.0345 69.7052 67.0345 72.0047Z" fill="#2F587F"/>
<path d="M40.5 94.6729C42.8139 94.6729 44.6897 96.537 44.6897 98.8364C44.6897 101.136 42.8139 103 40.5 103C38.1861 103 36.3103 101.136 36.3103 98.8364C36.3103 96.537 38.1861 94.6729 40.5 94.6729Z" fill="#2F587F"/>
<path d="M52.6035 94.6729C54.9173 94.6729 56.7931 96.537 56.7931 98.8364C56.7931 101.136 54.9173 103 52.6035 103C50.2896 103 48.4138 101.136 48.4138 98.8364C48.4138 96.537 50.2896 94.6729 52.6035 94.6729Z" fill="#2F587F"/>
<path d="M64.7069 94.6729C67.0208 94.6729 68.8966 96.537 68.8966 98.8364C68.8966 101.136 67.0208 103 64.7069 103C62.393 103 60.5172 101.136 60.5172 98.8364C60.5172 96.537 62.393 94.6729 64.7069 94.6729Z" fill="#2F587F"/>
<path d="M81 98.8364C81 101.136 79.1242 103 76.8103 103C74.4965 103 72.6207 101.136 72.6207 98.8364C72.6207 96.537 74.4965 94.6729 76.8103 94.6729C79.1242 94.6729 81 96.537 81 98.8364Z" fill="#2F587F"/>
<path d="M4.18966 94.6729C6.50354 94.6729 8.37931 96.537 8.37931 98.8364C8.37931 101.136 6.50354 103 4.18966 103C1.87577 103 1.01143e-07 101.136 0 98.8364C-1.01143e-07 96.537 1.87577 94.6729 4.18966 94.6729Z" fill="#2F587F"/>
<path d="M16.2931 94.6729C18.607 94.6729 20.4828 96.537 20.4828 98.8364C20.4828 101.136 18.607 103 16.2931 103C13.9792 103 12.1034 101.136 12.1034 98.8364C12.1034 96.537 13.9792 94.6729 16.2931 94.6729Z" fill="#2F587F"/>
<path d="M28.3966 94.6729C30.7104 94.6729 32.5862 96.537 32.5862 98.8364C32.5862 101.136 30.7104 103 28.3966 103C26.0827 103 24.2069 101.136 24.2069 98.8364C24.2069 96.537 26.0827 94.6729 28.3966 94.6729Z" fill="#2F587F"/>
<path d="M26.6667 1H39.5V40H26.6667V1Z" fill="white"/>
<path d="M39.5 1H52.3333V40H39.5V1Z" fill="white"/>
<path d="M39.5 40H52.3333V79H39.5V40Z" fill="white"/>
<path d="M39.5 92V79H78V92H39.5Z" fill="white"/>
<path d="M1 92L1 79H39.5V92H1Z" fill="white"/>
<path d="M26.6667 40H39.5V79H26.6667V40Z" fill="white"/>
<path d="M39.5 1H26.6667V40M39.5 1V40M39.5 1H52.3333V40M39.5 40H26.6667M39.5 40H52.3333M39.5 40V79M26.6667 40V79H39.5M52.3333 40V79H39.5M39.5 79V92M39.5 79H78V92H39.5M39.5 79H1L1 92H39.5" stroke="#C4C4C4"/>
</svg>
