<svg width="88" height="101" viewBox="0 0 88 101" fill="none" xmlns="http://www.w3.org/2000/svg">
<path d="M7.92 19.9342C7.92 22.1361 6.14705 23.9211 3.96 23.9211C1.77295 23.9211 0 22.1361 0 19.9342C0 17.7323 1.77295 15.9474 3.96 15.9474C6.14705 15.9474 7.92 17.7323 7.92 19.9342Z" fill="#2F587F"/>
<path d="M7.92 31.4518C7.92 33.6536 6.14705 35.4386 3.96 35.4386C1.77295 35.4386 0 33.6536 0 31.4518C0 29.2499 1.77295 27.4649 3.96 27.4649C6.14705 27.4649 7.92 29.2499 7.92 31.4518Z" fill="#2F587F"/>
<path d="M7.92 42.9693C7.92 45.1712 6.14705 46.9561 3.96 46.9561C1.77295 46.9561 0 45.1712 0 42.9693C0 40.7674 1.77295 38.9825 3.96 38.9825C6.14705 38.9825 7.92 40.7674 7.92 42.9693Z" fill="#2F587F"/>
<path d="M88 19.9342C88 22.1361 86.2271 23.9211 84.04 23.9211C81.853 23.9211 80.08 22.1361 80.08 19.9342C80.08 17.7323 81.853 15.9474 84.04 15.9474C86.2271 15.9474 88 17.7323 88 19.9342Z" fill="#2F587F"/>
<path d="M88 31.4518C88 33.6536 86.2271 35.4386 84.04 35.4386C81.853 35.4386 80.08 33.6536 80.08 31.4518C80.08 29.2499 81.853 27.4649 84.04 27.4649C86.2271 27.4649 88 29.2499 88 31.4518Z" fill="#2F587F"/>
<path d="M88 42.9693C88 45.1712 86.2271 46.9561 84.04 46.9561C81.853 46.9561 80.08 45.1712 80.08 42.9693C80.08 40.7674 81.853 38.9825 84.04 38.9825C86.2271 38.9825 88 40.7674 88 42.9693Z" fill="#2F587F"/>
<path d="M7.92 57.1447C7.92 59.3466 6.14705 61.1316 3.96 61.1316C1.77295 61.1316 0 59.3466 0 57.1447C0 54.9429 1.77295 53.1579 3.96 53.1579C6.14705 53.1579 7.92 54.9429 7.92 57.1447Z" fill="#2F587F"/>
<path d="M7.92 68.6623C7.92 70.8642 6.14705 72.6491 3.96 72.6491C1.77295 72.6491 0 70.8642 0 68.6623C0 66.4604 1.77295 64.6754 3.96 64.6754C6.14705 64.6754 7.92 66.4604 7.92 68.6623Z" fill="#2F587F"/>
<path d="M7.92 80.1798C7.92 82.3817 6.14705 84.1667 3.96 84.1667C1.77295 84.1667 0 82.3817 0 80.1798C0 77.978 1.77295 76.193 3.96 76.193C6.14705 76.193 7.92 77.978 7.92 80.1798Z" fill="#2F587F"/>
<path d="M88 57.1447C88 59.3466 86.2271 61.1316 84.04 61.1316C81.853 61.1316 80.08 59.3466 80.08 57.1447C80.08 54.9429 81.853 53.1579 84.04 53.1579C86.2271 53.1579 88 54.9429 88 57.1447Z" fill="#2F587F"/>
<path d="M88 68.6623C88 70.8642 86.2271 72.6491 84.04 72.6491C81.853 72.6491 80.08 70.8642 80.08 68.6623C80.08 66.4604 81.853 64.6754 84.04 64.6754C86.2271 64.6754 88 66.4604 88 68.6623Z" fill="#2F587F"/>
<path d="M88 80.1798C88 82.3817 86.2271 84.1667 84.04 84.1667C81.853 84.1667 80.08 82.3817 80.08 80.1798C80.08 77.978 81.853 76.193 84.04 76.193C86.2271 76.193 88 77.978 88 80.1798Z" fill="#2F587F"/>
<path d="M26.84 93.0263C29.027 93.0263 30.8 94.8113 30.8 97.0132C30.8 99.215 29.027 101 26.84 101C24.653 101 22.88 99.215 22.88 97.0132C22.88 94.8113 24.653 93.0263 26.84 93.0263Z" fill="#2F587F"/>
<path d="M38.28 93.0263C40.467 93.0263 42.24 94.8113 42.24 97.0132C42.24 99.215 40.467 101 38.28 101C36.093 101 34.32 99.215 34.32 97.0132C34.32 94.8113 36.093 93.0263 38.28 93.0263Z" fill="#2F587F"/>
<path d="M49.72 93.0263C51.907 93.0263 53.68 94.8113 53.68 97.0132C53.68 99.215 51.907 101 49.72 101C47.533 101 45.76 99.215 45.76 97.0132C45.76 94.8113 47.533 93.0263 49.72 93.0263Z" fill="#2F587F"/>
<path d="M65.12 97.0132C65.12 99.215 63.347 101 61.16 101C58.973 101 57.2 99.215 57.2 97.0132C57.2 94.8113 58.973 93.0263 61.16 93.0263C63.347 93.0263 65.12 94.8113 65.12 97.0132Z" fill="#2F587F"/>
<path d="M26.84 1.0069e-06C29.027 9.10649e-07 30.8 1.78497 30.8 3.98684C30.8 6.18872 29.027 7.97369 26.84 7.97369C24.653 7.97369 22.88 6.18872 22.88 3.98684C22.88 1.78497 24.653 1.10314e-06 26.84 1.0069e-06Z" fill="#2F587F"/>
<path d="M38.28 5.03448e-07C40.467 4.07201e-07 42.24 1.78497 42.24 3.98684C42.24 6.18871 40.467 7.97369 38.28 7.97369C36.093 7.97369 34.32 6.18872 34.32 3.98684C34.32 1.78497 36.093 5.99695e-07 38.28 5.03448e-07Z" fill="#2F587F"/>
<path d="M49.72 0C51.907 -9.62469e-08 53.68 1.78497 53.68 3.98684C53.68 6.18871 51.907 7.97368 49.72 7.97368C47.533 7.97368 45.76 6.18871 45.76 3.98684C45.76 1.78497 47.533 9.62469e-08 49.72 0Z" fill="#2F587F"/>
<path d="M65.12 3.98684C65.12 6.18872 63.347 7.97369 61.16 7.97369C58.973 7.97369 57.2 6.18872 57.2 3.98684C57.2 1.78497 58.973 1.18117e-06 61.16 1.18117e-06C63.347 1.18117e-06 65.12 1.78497 65.12 3.98684Z" fill="#2F587F"/>
<path d="M13 13H25.4V50.5H13V13Z" fill="white"/>
<path d="M13 50.5H25.4V88H13V50.5Z" fill="white"/>
<path d="M62.6 13H75V50.5H62.6V13Z" fill="white"/>
<path d="M62.6 50.5H75V88H62.6V50.5Z" fill="white"/>
<path d="M25.4 88V75.5H62.6V88H25.4Z" fill="white"/>
<path d="M25.4 25.5V13H62.6V25.5L25.4 25.5Z" fill="white"/>
<path d="M25.4 13H13V50.5M25.4 13V50.5M25.4 13V25.5L62.6 25.5V13M25.4 13H62.6M25.4 50.5H13M25.4 50.5V88M13 50.5V88H25.4M25.4 88L25.4 75.5H62.6V88M25.4 88H62.6M62.6 13H75V50.5M62.6 13V50.5M75 50.5H62.6M75 50.5V88H62.6M62.6 50.5V88" stroke="#C4C4C4"/>
</svg>
