<svg width="96" height="112" viewBox="0 0 96 112" fill="none" xmlns="http://www.w3.org/2000/svg">
<rect x="1" y="24" width="25" height="5" fill="white" stroke="#C4C4C4"/>
<path d="M7.56522 36.5C7.56522 37.8807 6.54326 39 5.28261 39C4.02196 39 3 37.8807 3 36.5C3 35.1193 4.02196 34 5.28261 34C6.54326 34 7.56522 35.1193 7.56522 36.5Z" fill="#2F587F"/>
<path d="M15.7826 36.5C15.7826 37.8807 14.7607 39 13.5 39C12.2394 39 11.2174 37.8807 11.2174 36.5C11.2174 35.1193 12.2394 34 13.5 34C14.7607 34 15.7826 35.1193 15.7826 36.5Z" fill="#2F587F"/>
<path d="M24 36.5C24 37.8807 22.978 39 21.7174 39C20.4567 39 19.4348 37.8807 19.4348 36.5C19.4348 35.1193 20.4567 34 21.7174 34C22.978 34 24 35.1193 24 36.5Z" fill="#2F587F"/>
<rect x="35" y="24" width="26" height="5" fill="white" stroke="#C4C4C4"/>
<rect x="35" y="10" width="26" height="5" fill="white" stroke="#C4C4C4"/>
<path d="M41.7826 36.5C41.7826 37.8807 40.712 39 39.3913 39C38.0706 39 37 37.8807 37 36.5C37 35.1193 38.0706 34 39.3913 34C40.712 34 41.7826 35.1193 41.7826 36.5Z" fill="#2F587F"/>
<path d="M50.3913 36.5C50.3913 37.8807 49.3207 39 48 39C46.6793 39 45.6087 37.8807 45.6087 36.5C45.6087 35.1193 46.6793 34 48 34C49.3207 34 50.3913 35.1193 50.3913 36.5Z" fill="#2F587F"/>
<path d="M59 36.5C59 37.8807 57.9294 39 56.6087 39C55.288 39 54.2174 37.8807 54.2174 36.5C54.2174 35.1193 55.288 34 56.6087 34C57.9294 34 59 35.1193 59 36.5Z" fill="#2F587F"/>
<path d="M41.7826 2.5C41.7826 3.88071 40.712 5 39.3913 5C38.0706 5 37 3.88071 37 2.5C37 1.11929 38.0706 0 39.3913 0C40.712 0 41.7826 1.11929 41.7826 2.5Z" fill="#2F587F"/>
<path d="M50.3913 2.5C50.3913 3.88071 49.3207 5 48 5C46.6793 5 45.6087 3.88071 45.6087 2.5C45.6087 1.11929 46.6793 0 48 0C49.3207 0 50.3913 1.11929 50.3913 2.5Z" fill="#2F587F"/>
<path d="M59 2.5C59 3.88071 57.9294 5 56.6087 5C55.288 5 54.2174 3.88071 54.2174 2.5C54.2174 1.11929 55.288 0 56.6087 0C57.9294 0 59 1.11929 59 2.5Z" fill="#2F587F"/>
<rect x="70" y="24" width="25" height="5" fill="white" stroke="#C4C4C4"/>
<path d="M76.5652 36.5C76.5652 37.8807 75.5433 39 74.2826 39C73.022 39 72 37.8807 72 36.5C72 35.1193 73.022 34 74.2826 34C75.5433 34 76.5652 35.1193 76.5652 36.5Z" fill="#2F587F"/>
<path d="M84.7826 36.5C84.7826 37.8807 83.7607 39 82.5 39C81.2394 39 80.2174 37.8807 80.2174 36.5C80.2174 35.1193 81.2394 34 82.5 34C83.7607 34 84.7826 35.1193 84.7826 36.5Z" fill="#2F587F"/>
<path d="M93 36.5C93 37.8807 91.978 39 90.7174 39C89.4567 39 88.4348 37.8807 88.4348 36.5C88.4348 35.1193 89.4567 34 90.7174 34C91.978 34 93 35.1193 93 36.5Z" fill="#2F587F"/>
<rect x="1" y="48" width="25" height="5" fill="white" stroke="#C4C4C4"/>
<path d="M7.56522 61C7.56522 62.1046 6.54326 63 5.28261 63C4.02196 63 3 62.1046 3 61C3 59.8954 4.02196 59 5.28261 59C6.54326 59 7.56522 59.8954 7.56522 61Z" fill="#2F587F"/>
<path d="M15.7826 61C15.7826 62.1046 14.7607 63 13.5 63C12.2394 63 11.2174 62.1046 11.2174 61C11.2174 59.8954 12.2394 59 13.5 59C14.7607 59 15.7826 59.8954 15.7826 61Z" fill="#2F587F"/>
<path d="M24 61C24 62.1046 22.978 63 21.7174 63C20.4567 63 19.4348 62.1046 19.4348 61C19.4348 59.8954 20.4567 59 21.7174 59C22.978 59 24 59.8954 24 61Z" fill="#2F587F"/>
<rect x="35" y="48" width="26" height="5" fill="white" stroke="#C4C4C4"/>
<path d="M41.7826 61C41.7826 62.1046 40.712 63 39.3913 63C38.0706 63 37 62.1046 37 61C37 59.8954 38.0706 59 39.3913 59C40.712 59 41.7826 59.8954 41.7826 61Z" fill="#2F587F"/>
<path d="M50.3913 61C50.3913 62.1046 49.3207 63 48 63C46.6793 63 45.6087 62.1046 45.6087 61C45.6087 59.8954 46.6793 59 48 59C49.3207 59 50.3913 59.8954 50.3913 61Z" fill="#2F587F"/>
<path d="M59 61C59 62.1046 57.9294 63 56.6087 63C55.288 63 54.2174 62.1046 54.2174 61C54.2174 59.8954 55.288 59 56.6087 59C57.9294 59 59 59.8954 59 61Z" fill="#2F587F"/>
<rect x="70" y="48" width="25" height="5" fill="white" stroke="#C4C4C4"/>
<path d="M76.5652 61C76.5652 62.1046 75.5433 63 74.2826 63C73.022 63 72 62.1046 72 61C72 59.8954 73.022 59 74.2826 59C75.5433 59 76.5652 59.8954 76.5652 61Z" fill="#2F587F"/>
<path d="M84.7826 61C84.7826 62.1046 83.7607 63 82.5 63C81.2394 63 80.2174 62.1046 80.2174 61C80.2174 59.8954 81.2394 59 82.5 59C83.7607 59 84.7826 59.8954 84.7826 61Z" fill="#2F587F"/>
<path d="M93 61C93 62.1046 91.978 63 90.7174 63C89.4567 63 88.4348 62.1046 88.4348 61C88.4348 59.8954 89.4567 59 90.7174 59C91.978 59 93 59.8954 93 61Z" fill="#2F587F"/>
<rect x="1" y="73" width="25" height="4" fill="white" stroke="#C4C4C4"/>
<path d="M7.56522 85C7.56522 86.1046 6.54326 87 5.28261 87C4.02196 87 3 86.1046 3 85C3 83.8954 4.02196 83 5.28261 83C6.54326 83 7.56522 83.8954 7.56522 85Z" fill="#2F587F"/>
<path d="M15.7826 85C15.7826 86.1046 14.7607 87 13.5 87C12.2394 87 11.2174 86.1046 11.2174 85C11.2174 83.8954 12.2394 83 13.5 83C14.7607 83 15.7826 83.8954 15.7826 85Z" fill="#2F587F"/>
<path d="M24 85C24 86.1046 22.978 87 21.7174 87C20.4567 87 19.4348 86.1046 19.4348 85C19.4348 83.8954 20.4567 83 21.7174 83C22.978 83 24 83.8954 24 85Z" fill="#2F587F"/>
<rect x="35" y="73" width="26" height="4" fill="white" stroke="#C4C4C4"/>
<path d="M41.7826 85C41.7826 86.1046 40.712 87 39.3913 87C38.0706 87 37 86.1046 37 85C37 83.8954 38.0706 83 39.3913 83C40.712 83 41.7826 83.8954 41.7826 85Z" fill="#2F587F"/>
<path d="M50.3913 85C50.3913 86.1046 49.3207 87 48 87C46.6793 87 45.6087 86.1046 45.6087 85C45.6087 83.8954 46.6793 83 48 83C49.3207 83 50.3913 83.8954 50.3913 85Z" fill="#2F587F"/>
<path d="M59 85C59 86.1046 57.9294 87 56.6087 87C55.288 87 54.2174 86.1046 54.2174 85C54.2174 83.8954 55.288 83 56.6087 83C57.9294 83 59 83.8954 59 85Z" fill="#2F587F"/>
<rect x="70" y="73" width="25" height="4" fill="white" stroke="#C4C4C4"/>
<path d="M76.5652 85C76.5652 86.1046 75.5433 87 74.2826 87C73.022 87 72 86.1046 72 85C72 83.8954 73.022 83 74.2826 83C75.5433 83 76.5652 83.8954 76.5652 85Z" fill="#2F587F"/>
<path d="M84.7826 85C84.7826 86.1046 83.7607 87 82.5 87C81.2394 87 80.2174 86.1046 80.2174 85C80.2174 83.8954 81.2394 83 82.5 83C83.7607 83 84.7826 83.8954 84.7826 85Z" fill="#2F587F"/>
<path d="M93 85C93 86.1046 91.978 87 90.7174 87C89.4567 87 88.4348 86.1046 88.4348 85C88.4348 83.8954 89.4567 83 90.7174 83C91.978 83 93 83.8954 93 85Z" fill="#2F587F"/>
<rect x="1" y="97" width="25" height="4" fill="white" stroke="#C4C4C4"/>
<path d="M7.56522 109.5C7.56522 110.881 6.54326 112 5.28261 112C4.02196 112 3 110.881 3 109.5C3 108.119 4.02196 107 5.28261 107C6.54326 107 7.56522 108.119 7.56522 109.5Z" fill="#2F587F"/>
<path d="M15.7826 109.5C15.7826 110.881 14.7607 112 13.5 112C12.2394 112 11.2174 110.881 11.2174 109.5C11.2174 108.119 12.2394 107 13.5 107C14.7607 107 15.7826 108.119 15.7826 109.5Z" fill="#2F587F"/>
<path d="M24 109.5C24 110.881 22.978 112 21.7174 112C20.4567 112 19.4348 110.881 19.4348 109.5C19.4348 108.119 20.4567 107 21.7174 107C22.978 107 24 108.119 24 109.5Z" fill="#2F587F"/>
<rect x="35" y="97" width="26" height="4" fill="white" stroke="#C4C4C4"/>
<path d="M41.7826 109.5C41.7826 110.881 40.712 112 39.3913 112C38.0706 112 37 110.881 37 109.5C37 108.119 38.0706 107 39.3913 107C40.712 107 41.7826 108.119 41.7826 109.5Z" fill="#2F587F"/>
<path d="M50.3913 109.5C50.3913 110.881 49.3207 112 48 112C46.6793 112 45.6087 110.881 45.6087 109.5C45.6087 108.119 46.6793 107 48 107C49.3207 107 50.3913 108.119 50.3913 109.5Z" fill="#2F587F"/>
<path d="M59 109.5C59 110.881 57.9294 112 56.6087 112C55.288 112 54.2174 110.881 54.2174 109.5C54.2174 108.119 55.288 107 56.6087 107C57.9294 107 59 108.119 59 109.5Z" fill="#2F587F"/>
<rect x="70" y="97" width="25" height="4" fill="white" stroke="#C4C4C4"/>
<path d="M76.5652 109.5C76.5652 110.881 75.5433 112 74.2826 112C73.022 112 72 110.881 72 109.5C72 108.119 73.022 107 74.2826 107C75.5433 107 76.5652 108.119 76.5652 109.5Z" fill="#2F587F"/>
<path d="M84.7826 109.5C84.7826 110.881 83.7607 112 82.5 112C81.2394 112 80.2174 110.881 80.2174 109.5C80.2174 108.119 81.2394 107 82.5 107C83.7607 107 84.7826 108.119 84.7826 109.5Z" fill="#2F587F"/>
<path d="M93 109.5C93 110.881 91.978 112 90.7174 112C89.4567 112 88.4348 110.881 88.4348 109.5C88.4348 108.119 89.4567 107 90.7174 107C91.978 107 93 108.119 93 109.5Z" fill="#2F587F"/>
</svg>
