<svg width="76" height="103" viewBox="0 0 76 103" fill="none" xmlns="http://www.w3.org/2000/svg">
<path d="M75.747 46.396L70.7479 39.5253C70.4342 39.084 70.4132 38.4747 70.727 38.0335L75.6215 31.0997C76.0608 30.4693 75.8516 29.5869 75.1823 29.2297L67.715 25.2165C67.2339 24.9643 66.962 24.418 67.0665 23.8717L68.468 15.4881C68.5935 14.7317 68.0287 14.0173 67.2548 13.9963L58.8044 13.6391C58.2606 13.6181 57.7795 13.2399 57.6331 12.7146L55.2904 4.52013C55.0812 3.78473 54.2655 3.38551 53.5543 3.70069L45.7732 7.06253C45.2712 7.27264 44.6856 7.14657 44.309 6.74735L38.6615 0.422892C38.1386 -0.144418 37.2601 -0.144418 36.7372 0.443904L31.1733 6.85241C30.8177 7.27264 30.232 7.39871 29.73 7.18859L21.9071 3.95282C21.196 3.65866 20.4011 4.05788 20.1919 4.79328L17.9539 12.9878C17.8074 13.5131 17.3473 13.8913 16.8034 13.9333L8.35303 14.4165C7.57911 14.4586 7.03527 15.173 7.16077 15.9294L8.6877 24.292C8.79228 24.8383 8.52037 25.3846 8.0602 25.6367L0.655641 29.7549C-0.013697 30.1332 -0.201948 31.0156 0.237305 31.625L5.23643 38.4957C5.55018 38.937 5.57109 39.5463 5.25734 39.9875L0.362805 46.9213C-0.0764478 47.5517 0.13272 48.4342 0.802058 48.7914L8.26936 52.8046C8.75045 53.0567 9.02237 53.603 8.91779 54.1493L7.51636 62.5329C7.39086 63.2893 7.95561 64.0037 8.72953 64.0247L17.1799 64.3819C17.7238 64.4029 18.2049 64.7811 18.3513 65.3064L20.7149 73.4799C20.924 74.2153 21.7398 74.6145 22.451 74.2993L30.232 70.9375C30.734 70.7274 31.3197 70.8534 31.6962 71.2526L37.3437 77.5771C37.8667 78.1444 38.7452 78.1444 39.2681 77.5561L44.832 71.1476C45.1876 70.7274 45.7732 70.6013 46.2752 70.8114L54.0981 74.0472C54.8093 74.3413 55.6041 73.9421 55.8133 73.2067L58.0514 65.0122C58.1978 64.4869 58.658 64.1087 59.2018 64.0667L67.6522 63.5835C68.4261 63.5414 68.97 62.827 68.8445 62.0706L67.3176 53.708C67.213 53.1618 67.4849 52.6154 67.9451 52.3633L75.3496 48.2451C76.0189 47.9089 76.2072 47.0264 75.747 46.396ZM38.0131 62.0916C25.3584 62.0916 15.0464 51.733 15.0464 39.021C15.0464 26.3091 25.3584 15.9504 38.0131 15.9504C50.6678 15.9504 60.9798 26.3091 60.9798 39.021C60.9798 51.754 50.6678 62.0916 38.0131 62.0916Z" fill="#2F587F"/>
<path d="M58.5837 77C57.3723 78.2515 55.6805 78.994 53.8634 78.994C53.2159 78.994 52.5684 78.8879 51.9627 78.7182L46.5741 77.0636L42.4177 80.9243C42.2715 81.0516 42.1462 81.1788 42 81.2849L48.6836 102.328C48.9134 103.07 49.8532 103.24 50.3336 102.624L55.2001 96.282C55.4299 95.9638 55.8476 95.8365 56.2027 95.9426L63.7844 98.1911C64.5154 98.4032 65.1837 97.7032 64.954 96.982L58.5837 77Z" fill="#2F587F"/>
<path d="M29.4259 77.0636L24.0373 78.7168C23.4107 78.9076 22.7841 78.9923 22.1366 78.9923C20.3195 78.9923 18.6486 78.2505 17.4163 77L11.046 96.9869C10.8163 97.7287 11.4846 98.407 12.2156 98.195L19.7973 95.9484C20.1733 95.8424 20.5701 95.9696 20.7999 96.2875L25.6664 102.625C26.1259 103.239 27.0866 103.07 27.3164 102.328L34 81.3026C33.8538 81.1966 33.7076 81.0694 33.5823 80.9423L29.4259 77.0636Z" fill="#2F587F"/>
<path d="M52.2939 33.6922L43.5168 33.0709L40.2094 25.1183C39.5946 23.6272 37.4109 23.6272 36.7961 25.1183L33.4888 33.0709L24.7116 33.6922C23.058 33.8164 22.4008 35.8253 23.6516 36.8608L30.3723 42.411L28.2734 50.757C27.8706 52.331 29.6302 53.5736 31.0295 52.7245L38.4922 48.189L45.9549 52.7245C47.3541 53.5736 49.1138 52.331 48.711 50.757L46.6121 42.411L53.3328 36.8608C54.6048 35.8253 53.9476 33.8164 52.2939 33.6922Z" fill="#2F587F"/>
</svg>
